<?xml version="1.0" standalone="no"?>
<!DOCTYPE svg PUBLIC "-//W3C//DTD SVG 20010904//EN"
 "http://www.w3.org/TR/2001/REC-SVG-20010904/DTD/svg10.dtd">
<svg version="1.0" xmlns="http://www.w3.org/2000/svg"
 width="605.000000pt" height="595.000000pt" viewBox="0 0 605.000000 595.000000"
 preserveAspectRatio="xMidYMid meet">
<metadata>
Created by potrace 1.16, written by Peter Selinger 2001-2019
</metadata>
<g transform="translate(0.000000,595.000000) scale(0.100000,-0.100000)"
fill="#000000" stroke="none">
<path d="M2981 5901 c-7 -5 -17 -29 -22 -55 -4 -25 -17 -66 -29 -90 -11 -25
-20 -48 -20 -51 0 -24 -193 -363 -219 -385 -3 -3 -26 -32 -50 -65 -89 -120
-240 -283 -361 -390 -77 -68 -241 -191 -275 -207 -14 -6 -25 -15 -25 -20 0 -4
-4 -8 -9 -8 -5 0 -35 -15 -68 -33 -78 -44 -257 -123 -312 -137 -24 -6 -51 -15
-60 -20 -28 -14 -122 -39 -211 -55 -238 -44 -463 -44 -639 0 -57 14 -110 24
-118 21 -53 -21 79 -248 242 -418 74 -77 193 -158 231 -158 11 0 25 -5 32 -12
17 -17 252 -23 322 -8 30 6 78 15 105 20 53 10 92 19 195 44 144 35 284 64
291 61 3 -3 2 -26 -2 -52 -5 -26 -16 -91 -24 -143 -33 -205 -24 -183 -80 -198
-28 -8 -90 -23 -140 -33 -49 -11 -99 -24 -110 -29 -11 -5 -36 -11 -55 -14 -52
-7 -250 -46 -290 -56 -19 -6 -107 -22 -195 -36 -141 -23 -177 -25 -310 -20
-82 4 -176 9 -209 12 -55 6 -75 -1 -76 -27 0 -9 99 -161 119 -181 9 -9 38 -43
66 -75 133 -155 286 -267 377 -276 50 -4 207 13 293 32 42 10 311 80 404 105
l53 15 -6 -32 c-11 -57 -49 -140 -124 -272 -116 -204 -250 -366 -391 -473 -42
-31 -78 -59 -81 -62 -3 -3 -39 -22 -81 -42 -121 -59 -208 -81 -344 -87 l-120
-6 -3 -32 c-2 -19 1 -33 7 -33 6 0 11 -5 11 -12 0 -11 96 -165 110 -178 4 -3
13 -15 21 -27 57 -84 187 -215 235 -238 31 -15 91 -10 149 11 23 8 157 84 165
93 19 22 110 90 110 82 0 -21 -78 -182 -142 -295 -230 -401 -608 -781 -955
-959 -95 -49 -178 -87 -191 -87 -6 0 -31 -9 -56 -20 -83 -35 -59 -69 80 -114
43 -15 95 -32 114 -38 208 -68 569 -98 775 -64 99 17 244 52 267 66 10 5 23
10 30 10 13 0 142 46 169 60 8 4 51 23 95 40 43 18 84 36 89 40 6 4 55 31 110
60 55 30 108 62 119 72 11 10 28 20 38 24 10 3 18 10 18 15 0 5 4 9 10 9 11 0
202 136 241 171 14 13 54 49 89 79 115 99 320 308 421 430 57 70 73 88 114
135 14 17 43 55 63 85 20 30 40 57 44 60 11 8 129 -167 123 -182 -12 -30 -179
-120 -260 -140 -89 -22 -87 -20 -90 -165 -2 -160 -11 -199 -74 -335 -56 -120
-36 -126 204 -56 92 27 166 60 270 118 69 38 208 133 246 167 l37 33 38 -47
c69 -86 97 -116 238 -256 244 -243 454 -380 711 -465 130 -43 197 -52 387 -52
118 0 206 5 249 14 72 16 218 64 233 78 6 4 16 8 23 8 11 0 100 50 128 72 6 5
28 22 50 39 55 42 111 96 168 160 65 74 67 77 67 89 0 5 4 10 9 10 24 0 231
387 231 431 0 8 5 20 11 26 5 5 13 36 16 67 7 66 -8 75 -48 28 -78 -90 -270
-216 -399 -260 -62 -21 -95 -29 -220 -54 -71 -14 -361 -14 -420 0 -112 26
-208 53 -245 67 -22 9 -49 19 -60 22 -30 10 -208 104 -226 119 -8 8 -19 14
-23 14 -8 0 -206 142 -251 180 -99 83 -287 284 -383 409 -24 31 -48 63 -55 71
-7 8 -37 51 -67 95 -30 44 -58 82 -62 83 -5 2 -8 8 -8 13 0 5 -20 40 -44 77
-56 86 -110 188 -91 172 22 -18 38 -1 80 82 47 91 59 112 67 118 4 3 14 24 23
45 17 40 28 66 83 185 16 36 33 76 37 90 4 14 13 39 21 55 30 69 64 159 64
172 0 7 4 21 9 31 5 9 17 46 26 82 10 36 21 74 25 85 10 23 48 179 60 245 24
128 29 139 68 148 55 13 179 40 242 52 30 6 80 17 110 25 135 35 266 63 425
90 147 25 393 18 470 -15 61 -26 128 -41 137 -32 10 10 -16 121 -30 132 -4 3
-25 41 -47 85 -22 44 -69 118 -104 165 -87 117 -261 284 -314 303 -17 7 -71
-2 -147 -22 -19 -6 -84 -22 -145 -36 -60 -14 -132 -32 -160 -40 -27 -8 -102
-26 -165 -41 -63 -14 -124 -29 -135 -34 -11 -5 -56 -16 -100 -25 -44 -9 -89
-20 -100 -25 -11 -5 -33 -11 -50 -13 -32 -6 -170 -39 -330 -80 -55 -14 -167
-42 -250 -62 -82 -20 -166 -40 -185 -45 -45 -11 -106 -25 -200 -45 -41 -9 -97
-23 -125 -30 -27 -7 -80 -19 -118 -25 -37 -7 -70 -16 -73 -21 -3 -5 -12 -9
-21 -9 -18 0 -17 14 11 180 35 205 36 210 65 216 14 3 62 15 106 26 44 11 99
24 123 29 23 5 51 13 61 19 11 5 30 10 42 10 12 0 36 4 53 9 17 5 69 19 116
31 145 37 254 66 270 73 8 3 29 8 45 11 40 7 212 53 244 65 14 5 71 21 126 36
55 15 114 33 130 40 17 7 56 19 88 26 32 7 60 16 63 21 3 4 18 8 33 8 15 0 31
4 37 9 5 5 36 16 69 26 33 10 65 21 70 25 6 4 55 20 110 35 55 15 109 32 120
38 18 10 62 22 261 77 39 11 111 26 160 34 155 26 176 39 137 81 -10 11 -59
76 -108 145 -49 69 -92 127 -97 128 -4 2 -8 8 -8 13 0 6 -5 15 -11 22 -28 32
-240 345 -265 392 -20 37 -51 30 -108 -22 -82 -76 -127 -115 -176 -153 -25
-19 -46 -38 -48 -42 -2 -5 -8 -8 -13 -8 -6 0 -22 -8 -37 -19 -15 -10 -49 -32
-77 -49 -27 -17 -55 -35 -61 -39 -30 -22 -315 -165 -384 -193 -30 -12 -64 -26
-75 -30 -11 -5 -42 -16 -70 -26 -27 -10 -54 -21 -60 -25 -5 -4 -37 -15 -70
-24 -33 -10 -64 -21 -70 -25 -5 -4 -21 -10 -35 -13 -14 -3 -70 -21 -125 -40
-84 -29 -162 -52 -290 -84 -11 -3 -18 -3 -15 -1 3 3 37 31 75 63 116 97 271
258 387 403 82 102 228 320 226 337 -2 11 -16 27 -33 35 -149 76 -339 195
-430 272 -72 60 -120 98 -125 98 -3 0 -11 -4 -19 -9z m105 -81 c122 -100 232
-172 417 -274 43 -24 65 -42 60 -49 -24 -39 -139 -199 -217 -302 -143 -188
-437 -470 -555 -531 -45 -24 -8 -16 186 40 696 200 1166 424 1485 710 59 53
109 96 111 96 3 0 21 -28 42 -62 36 -61 223 -327 399 -568 l84 -115 -41 -8
c-23 -4 -80 -14 -127 -23 -109 -20 -339 -85 -610 -174 -306 -101 -577 -180
-975 -284 -49 -13 -170 -43 -269 -66 -145 -34 -180 -39 -187 -28 -7 10 -9 9
-9 -4 0 -10 -4 -18 -10 -18 -18 0 -25 -2 -43 -12 -14 -7 -23 -4 -41 16 -25 29
-36 33 -36 11 0 -8 -6 -15 -14 -15 -8 0 -16 -6 -19 -12 -5 -17 -57 9 -57 29 0
17 27 17 33 1 2 -7 8 -10 12 -6 4 4 -5 18 -19 31 -26 24 -34 47 -16 47 5 0 13
-7 18 -16 6 -11 12 -13 16 -6 4 6 -11 29 -34 52 -22 22 -40 44 -40 50 0 6 -7
10 -15 10 -8 0 -15 5 -15 10 0 6 4 10 9 10 6 0 13 -4 16 -10 10 -15 35 -12 35
5 0 8 -7 15 -15 15 -8 0 -15 7 -15 15 0 8 -7 15 -15 15 -8 0 -15 7 -15 15 0 8
-7 15 -15 15 -8 0 -15 7 -15 15 0 8 7 15 15 15 8 0 15 7 15 15 0 8 7 15 15 15
8 0 15 -7 15 -15 0 -8 -7 -15 -15 -15 -8 0 -15 -7 -15 -15 0 -8 7 -15 15 -15
8 0 15 -4 15 -10 0 -11 36 -50 48 -50 4 -1 18 -14 32 -30 27 -33 40 -38 40
-15 0 8 9 15 20 15 12 0 20 -7 20 -17 0 -13 3 -14 12 -5 9 9 8 15 -8 26 -24
18 -10 34 16 18 24 -15 30 -15 30 -2 0 6 -7 10 -15 10 -8 0 -15 7 -15 15 0 8
-4 15 -9 15 -5 0 -11 -7 -15 -15 -6 -17 -36 -20 -36 -4 0 7 8 18 17 25 10 7
14 16 10 21 -5 4 -14 0 -21 -10 -17 -22 -25 -22 -42 0 -7 10 -16 14 -21 10 -4
-5 0 -14 10 -21 21 -16 22 -36 2 -36 -8 0 -15 7 -15 15 0 8 -4 15 -10 15 -5 0
-19 9 -30 20 -11 11 -20 25 -20 30 0 14 23 12 40 -2 11 -10 11 -9 0 7 -8 11
-21 24 -27 28 -18 11 -16 35 3 39 13 2 12 8 -8 31 -13 15 -27 24 -32 20 -4 -4
3 -15 16 -24 22 -17 22 -18 4 -25 -12 -5 -22 -2 -28 10 -5 9 -13 14 -19 11 -5
-4 -9 1 -9 9 0 9 -7 16 -15 16 -20 0 -19 -10 3 -26 13 -10 14 -15 5 -25 -10
-10 -14 -9 -19 4 -9 23 -21 21 -48 -8 -26 -28 -46 -32 -46 -10 0 8 7 15 15 15
8 0 15 5 15 10 0 17 -27 11 -35 -7 -6 -16 -8 -15 -24 6 -12 15 -21 20 -25 13
-7 -12 27 -52 44 -52 6 0 10 -6 10 -12 1 -7 14 -24 30 -38 17 -13 30 -30 30
-37 0 -7 7 -13 15 -13 8 0 15 -4 15 -10 0 -5 -4 -10 -10 -10 -13 0 -50 37 -50
50 0 6 -7 10 -15 10 -8 0 -15 7 -15 15 0 8 -7 15 -15 15 -8 0 -15 7 -15 15 0
8 -7 15 -15 15 -8 0 -15 7 -15 15 0 8 -4 15 -9 15 -19 0 -62 48 -51 55 6 4 21
-3 33 -15 l20 -23 8 22 c5 11 13 21 19 21 5 0 10 7 10 15 0 8 7 15 15 15 8 0
15 -7 15 -15 0 -8 7 -15 15 -15 8 0 15 7 15 15 0 8 7 15 15 15 8 0 15 3 15 6
0 11 -71 74 -83 74 -7 0 -4 -7 6 -14 22 -17 21 -22 -2 -47 -12 -13 -25 -18
-32 -14 -9 6 -7 11 6 21 17 12 16 15 -14 41 -17 15 -31 33 -31 40 0 7 -6 13
-13 13 -7 0 -19 9 -27 20 -15 21 -40 27 -40 10 0 -5 7 -10 15 -10 8 0 15 -7
15 -15 0 -21 -17 -19 -42 5 -12 11 -29 19 -37 19 -13 -1 -12 -2 2 -6 17 -4 23
-24 11 -36 -9 -9 -35 4 -28 14 3 5 1 9 -5 9 -15 0 -23 -18 -11 -25 15 -9 12
-25 -5 -25 -8 0 -15 4 -15 8 0 5 -7 9 -15 9 -8 0 -15 -4 -15 -9 0 -4 -9 -8
-20 -8 -29 0 -25 -13 14 -45 19 -16 33 -33 30 -37 -9 -13 -24 -9 -24 7 0 8 -6
15 -14 15 -8 0 -16 7 -20 15 -5 14 -46 22 -46 9 0 -4 10 -15 22 -25 11 -11 18
-22 14 -26 -4 -5 -12 0 -17 10 -6 10 -21 17 -37 16 -15 0 -21 -3 -14 -6 23 -9
12 -20 -27 -26 -22 -3 -60 -19 -84 -36 -25 -17 -53 -31 -61 -31 -9 0 -16 -7
-16 -15 0 -9 -6 -12 -15 -9 -16 6 -85 -22 -85 -34 0 -4 -13 -7 -28 -8 -16 -1
-44 -8 -61 -17 -18 -9 -48 -19 -67 -23 -19 -3 -37 -10 -40 -15 -3 -5 -11 -9
-19 -9 -8 0 -26 -5 -42 -11 -15 -6 -45 -13 -65 -14 -20 -2 -43 -7 -50 -12 -7
-4 -24 -9 -38 -10 -54 -6 -65 -8 -77 -16 -6 -4 -14 -3 -17 2 -4 5 20 15 51 21
364 74 668 219 957 458 17 14 93 89 170 166 178 180 303 345 425 561 50 90
119 256 127 306 4 22 10 39 15 39 5 0 48 -32 95 -70z m1848 -1669 c142 -116
269 -276 346 -435 27 -56 52 -114 56 -130 6 -26 5 -28 -12 -21 -143 61 -351
80 -559 51 -66 -10 -201 -35 -300 -57 -99 -22 -223 -49 -275 -60 -209 -43
-269 -60 -274 -77 -2 -9 -19 -82 -36 -161 -69 -315 -174 -617 -311 -896 -74
-150 -95 -183 -106 -171 -4 4 -2 10 4 14 19 12 28 63 12 73 -7 4 -10 11 -6 16
5 4 12 1 17 -7 5 -8 12 -11 17 -7 4 4 2 16 -4 26 -15 24 -5 35 15 18 13 -10
14 -8 8 17 -6 23 -4 27 8 23 18 -7 22 18 5 28 -6 5 -4 12 8 21 10 7 14 14 9
14 -4 0 -1 11 8 24 9 14 13 32 9 41 -3 10 0 21 8 26 11 7 12 12 2 29 -16 24
-16 30 -3 30 6 0 10 -7 10 -15 0 -8 5 -15 10 -15 14 0 12 20 -4 52 -9 16 -11
30 -5 33 5 4 9 -1 9 -9 0 -9 7 -16 16 -16 12 0 15 6 10 25 -5 18 -2 27 9 31
12 5 13 10 4 20 -9 11 -7 15 5 20 13 5 7 16 -34 57 -27 27 -50 51 -50 53 0 2
7 4 15 4 8 0 15 -7 15 -15 0 -8 7 -15 15 -15 8 0 15 -6 15 -12 0 -7 11 -18 25
-25 42 -19 24 19 -34 71 -60 54 -69 64 -64 70 4 3 -2 6 -11 6 -12 0 -16 5 -12
15 6 17 4 18 -18 9 -23 -9 -20 -29 6 -41 12 -5 17 -12 12 -16 -13 -8 -90 60
-79 70 4 5 10 2 12 -4 6 -18 33 -16 33 2 0 18 21 20 37 4 9 -9 18 -4 38 17 24
26 25 29 9 33 -11 2 -29 14 -41 27 -23 25 -43 31 -43 14 0 -5 7 -13 16 -18 11
-6 13 -11 5 -16 -6 -4 -21 2 -32 13 -20 18 -20 21 -6 27 10 3 17 12 17 20 0 8
7 14 15 14 8 0 15 -7 15 -15 0 -8 6 -15 14 -15 8 0 16 -7 20 -15 5 -14 36 -22
36 -9 0 10 -50 54 -61 54 -5 0 -9 6 -9 14 0 8 -7 16 -15 20 -8 3 -15 10 -15
16 0 5 7 10 15 10 8 0 15 7 15 15 0 20 -26 19 -34 -2 -6 -14 -9 -14 -26 5 -11
12 -20 25 -20 29 -1 4 -14 19 -30 33 -17 13 -30 30 -30 37 0 7 -7 13 -15 13
-8 0 -15 5 -15 10 0 6 7 10 15 10 8 0 15 -4 15 -9 0 -5 9 -11 21 -14 12 -3 18
-10 14 -16 -3 -6 1 -11 10 -11 8 0 18 -7 21 -15 4 -8 10 -15 15 -15 5 0 9 7 9
15 0 8 -7 15 -16 15 -8 0 -13 4 -10 9 3 5 -3 11 -14 14 -24 6 -26 25 -5 34 9
3 22 -2 30 -13 18 -24 19 -14 2 20 -8 14 -17 23 -20 19 -4 -3 -9 2 -13 11 -3
9 -13 16 -20 16 -8 0 -17 7 -20 15 -8 19 -24 20 -24 2 0 -16 -30 -19 -30 -3
-1 6 -18 29 -40 50 -33 33 -40 37 -46 23 -6 -18 -34 -24 -34 -7 0 5 8 14 18
20 16 10 16 10 0 20 -22 13 -24 40 -3 40 8 0 15 5 15 10 0 13 -6 13 -31 -2
-17 -11 -22 -10 -30 5 -10 17 -12 18 -30 1 -17 -15 -19 -15 -25 0 -3 9 -15 16
-26 16 -10 0 -16 -4 -13 -10 3 -5 -1 -10 -9 -10 -9 0 -16 7 -16 15 0 8 -7 15
-15 15 -8 0 -15 5 -15 10 0 6 7 10 15 10 8 0 15 -4 15 -10 0 -5 7 -10 15 -10
21 0 19 13 -6 28 -16 10 -18 17 -10 25 9 9 20 2 46 -27 19 -22 38 -36 42 -32
5 4 0 13 -10 20 -21 16 -22 36 -2 36 8 0 15 7 15 15 0 8 -7 15 -15 15 -8 0
-15 7 -15 15 0 8 -7 15 -15 15 -8 0 -15 5 -15 10 0 6 -8 10 -17 10 -16 -1 -16
-2 1 -15 19 -15 19 -15 -2 -35 -11 -11 -25 -20 -29 -20 -4 1 -21 18 -38 40
-29 37 -85 70 -85 49 0 -5 11 -14 25 -19 27 -10 34 -30 10 -30 -8 0 -15 3 -15
8 0 9 -92 52 -111 52 -11 0 -11 -2 1 -10 11 -7 12 -12 4 -20 -8 -8 -16 -7 -27
4 -17 17 -47 22 -47 7 0 -5 10 -11 22 -15 17 -4 20 -8 11 -17 -8 -8 -17 -7
-36 6 -23 15 -52 14 -97 -2 -8 -3 -32 -6 -52 -6 -31 -1 -38 -5 -38 -21 -1 -18
-2 -19 -13 -6 -18 23 -43 13 -58 -21 -10 -26 -10 -33 2 -41 12 -8 12 -9 -1 -5
-8 2 -20 -3 -26 -11 -9 -12 -12 -12 -23 2 -11 13 -11 16 0 16 10 0 14 17 15
65 1 36 -3 65 -7 65 -14 0 -11 28 4 34 10 5 10 7 0 12 -16 7 -17 31 -2 36 12
4 -9 58 -23 58 -4 0 -8 7 -8 15 0 8 5 15 10 15 6 0 10 -7 10 -15 0 -8 4 -15 9
-15 18 0 22 19 9 39 -10 17 -8 23 15 45 27 25 35 46 17 46 -5 0 -10 7 -10 16
0 10 6 14 14 11 10 -4 12 0 9 14 -3 10 0 19 6 19 6 0 11 9 11 20 0 11 -4 20
-10 20 -5 0 -10 5 -10 11 0 6 9 9 20 6 17 -4 19 -1 14 20 -6 24 -5 25 25 18
20 -4 31 -3 31 4 0 6 -7 11 -15 11 -15 0 -20 12 -9 23 7 7 54 -33 54 -45 0 -5
-9 -8 -20 -8 -14 0 -21 -9 -25 -32 -54 -309 -72 -414 -70 -416 2 -2 30 4 64
13 34 9 81 20 104 24 164 33 570 131 1447 351 371 93 688 169 703 170 20 0 50
-17 101 -59z m-1658 -943 c-8 -65 -38 -215 -82 -403 -41 -175 -41 -161 11
-271 26 -54 72 -150 102 -213 61 -127 96 -212 90 -217 -6 -6 -167 326 -167
344 0 13 -83 167 -113 212 -101 146 -182 217 -323 281 -70 33 -259 78 -326 79
-31 0 -38 4 -38 19 0 28 27 51 60 51 16 0 32 5 35 10 3 6 19 10 35 10 24 0
137 24 320 69 25 6 99 23 165 37 66 14 140 32 165 39 74 22 73 23 66 -47z
m-869 -144 c-5 -50 -3 -65 6 -61 7 2 61 -2 120 -9 245 -32 427 -140 553 -330
31 -46 94 -168 140 -272 139 -309 284 -554 479 -812 340 -449 760 -745 1177
-830 105 -22 301 -28 430 -14 220 23 461 134 625 287 41 38 63 54 63 43 0 -28
-78 -215 -131 -316 -40 -74 -113 -189 -146 -230 -4 -5 -23 21 -23 32 0 4 6 5
14 2 20 -8 28 47 9 62 -14 10 -14 12 3 25 27 20 31 43 4 29 -16 -9 -20 -8 -20
5 0 8 5 15 10 15 6 0 10 5 10 11 0 8 -4 8 -14 0 -14 -11 -21 -6 -41 28 -6 11
-2 13 18 7 21 -5 25 -3 21 9 -3 8 -11 12 -16 9 -6 -4 -14 0 -19 7 -7 11 -9 10
-9 -3 0 -22 -16 -24 -24 -3 -7 18 -26 16 -43 -5 -9 -12 -14 -13 -24 -2 -17 16
-30 15 -23 -2 6 -17 -12 -31 -21 -16 -3 5 -13 10 -21 10 -8 0 -12 -5 -9 -10 9
-14 -9 -12 -24 3 -10 10 -15 9 -25 -5 -16 -21 -30 -24 -23 -4 4 10 0 12 -16 8
-12 -3 -25 -9 -28 -14 -3 -5 -51 -10 -107 -11 -56 -1 -102 -4 -102 -7 0 -7
-71 -3 -91 5 -10 3 -20 2 -23 -3 -3 -6 -22 -6 -48 -1 -24 5 -90 18 -148 28
-124 23 -150 30 -150 42 0 5 -13 9 -29 9 -17 0 -33 4 -36 10 -3 5 -15 10 -26
10 -23 0 -259 119 -274 138 -6 7 -15 13 -20 12 -20 -4 -31 1 -65 30 -19 17
-43 33 -52 36 -10 3 -18 10 -18 15 0 5 -7 9 -15 9 -8 0 -15 4 -15 10 0 5 -11
15 -24 22 -53 28 -249 215 -361 344 -33 38 -64 74 -70 80 -40 45 -55 66 -55
79 0 8 -6 15 -14 15 -8 0 -16 10 -18 23 -2 15 -9 21 -22 19 -11 -2 -15 1 -11
7 10 17 -6 36 -17 20 -7 -11 -8 -10 -4 4 6 18 -62 123 -91 140 -7 4 -13 15
-13 22 0 8 -7 15 -16 15 -11 0 -14 6 -9 20 3 11 2 20 -3 20 -5 0 -17 16 -26
35 -9 19 -21 35 -26 35 -5 0 -7 6 -4 13 3 8 -2 20 -10 27 -9 7 -14 16 -11 20
3 4 -2 13 -10 20 -8 7 -15 19 -15 26 0 8 -7 14 -16 14 -11 0 -14 5 -10 16 6
16 -26 88 -44 99 -5 3 -10 15 -10 25 0 13 -5 17 -15 14 -8 -4 -15 -1 -15 5 0
6 5 11 11 11 12 0 -20 61 -39 73 -7 5 -10 13 -6 18 8 13 -33 99 -47 99 -6 0
-8 9 -4 21 6 18 4 20 -14 14 -15 -4 -21 -2 -21 8 0 9 6 17 12 19 11 4 -40 81
-66 99 -5 4 -6 14 -3 22 3 8 -10 33 -31 58 -95 114 -124 137 -135 107 -2 -8
-8 -9 -13 -4 -5 5 -4 11 4 13 20 8 14 30 -14 48 -22 14 -28 15 -35 4 -4 -7
-12 -10 -16 -5 -4 5 -2 11 5 13 25 9 11 24 -17 18 -25 -5 -29 -4 -25 12 4 14
-1 18 -22 20 -16 0 -33 8 -40 17 -12 18 -44 22 -44 6 0 -5 -5 -10 -11 -10 -6
0 -8 7 -5 16 4 12 2 15 -9 11 -8 -4 -21 0 -28 7 -8 8 -25 15 -38 15 -13 1 -42
3 -64 4 -22 1 -44 8 -48 15 -11 17 -36 15 -43 -3 -4 -8 -10 -12 -15 -9 -5 3
-7 10 -4 15 4 5 1 9 -4 9 -6 0 -11 -10 -11 -22 0 -74 -144 -618 -230 -865 -22
-64 -40 -118 -40 -121 0 -3 -3 -3 -6 0 -3 4 24 102 60 220 115 378 162 573
144 595 -7 9 -7 17 0 26 9 11 28 92 31 127 2 32 18 107 31 143 22 58 34 45 27
-29z m63 -474 c11 -47 25 -89 30 -94 6 -6 10 -20 10 -32 0 -44 149 -363 187
-402 15 -16 4 -37 -76 -152 -158 -227 -338 -437 -541 -636 -120 -117 -141
-136 -215 -186 -33 -23 -62 -44 -65 -47 -3 -3 -16 -12 -30 -20 -14 -8 -36 -21
-49 -29 -22 -15 -21 -12 10 44 18 32 40 70 49 84 10 14 25 43 36 65 10 22 21
42 24 45 8 6 48 91 86 180 15 36 38 88 50 117 13 28 24 57 24 63 0 5 4 18 10
28 19 33 60 146 60 164 0 10 4 18 9 18 5 0 13 15 16 33 4 17 15 50 25 72 10
22 30 78 45 125 16 47 32 94 36 105 16 40 57 172 84 270 15 55 31 114 36 130
12 40 66 270 75 320 7 38 9 33 30 -70 12 -60 32 -148 44 -195z"/>
<path d="M4369 3419 c-9 -5 -16 -35 -20 -81 -6 -74 -44 -291 -56 -318 -9 -21
-53 -179 -60 -215 -3 -16 -9 -34 -13 -40 -5 -5 -16 -37 -25 -70 -10 -33 -20
-62 -24 -65 -3 -3 -14 -25 -23 -50 -36 -98 -43 -115 -48 -120 -3 -3 -14 -25
-25 -50 -11 -25 -22 -47 -25 -50 -4 -3 -9 -12 -13 -20 -3 -8 -20 -37 -37 -65
-16 -27 -37 -65 -47 -82 -9 -18 -20 -33 -25 -33 -4 0 -8 -5 -8 -11 0 -12 -95
-152 -198 -291 -75 -101 -84 -127 -55 -168 34 -50 179 -226 221 -270 24 -25
55 -60 69 -77 33 -43 61 -42 106 5 19 20 79 80 132 132 130 127 246 263 335
390 41 58 76 107 80 110 15 13 133 197 186 290 57 101 183 352 219 435 9 22
20 47 25 55 9 19 72 204 94 280 9 30 21 72 28 93 17 57 5 64 -155 82 -132 14
-256 42 -324 71 -17 8 -34 14 -37 14 -6 0 -109 45 -136 59 -45 23 -86 47 -90
52 -11 12 -38 17 -51 8z m123 -68 c186 -94 360 -144 553 -157 79 -6 95 -10 95
-24 0 -28 -97 -331 -134 -417 -70 -163 -202 -418 -295 -568 -93 -151 -262
-381 -355 -484 -60 -67 -83 -81 -36 -22 26 34 30 45 19 52 -11 6 -11 11 -1 21
9 9 12 9 12 -5 0 -24 15 -21 34 7 17 27 12 53 -13 73 -12 9 -12 12 -3 13 15 0
36 -19 45 -40 3 -9 6 -5 6 10 1 15 -4 31 -11 38 -6 6 -9 15 -5 19 4 3 13 -2
20 -12 13 -16 14 -16 20 -1 4 9 2 16 -3 16 -6 0 -10 7 -10 15 0 18 17 20 23 3
2 -7 8 -9 13 -5 5 4 2 12 -5 17 -12 7 -12 12 2 34 21 31 21 36 2 36 -8 0 -15
-7 -15 -15 0 -8 -7 -15 -15 -15 -8 0 -15 5 -15 10 0 6 7 13 15 16 8 4 15 12
15 19 0 8 10 17 21 20 20 7 20 9 -15 40 -24 21 -33 35 -26 40 6 4 17 -1 24
-11 8 -10 15 -13 19 -7 4 6 0 16 -8 23 -19 16 -19 30 0 30 8 0 15 5 15 10 0 6
-7 10 -15 10 -8 0 -15 -4 -15 -10 0 -5 -7 -10 -15 -10 -8 0 -15 5 -15 10 0 6
7 13 15 16 8 4 15 12 15 20 0 8 7 14 15 14 8 0 15 5 15 10 0 13 -13 13 -28 -2
-9 -9 -18 -5 -37 15 -20 19 -23 27 -13 34 12 8 38 47 38 58 0 3 -5 5 -11 5 -5
0 -7 -5 -4 -11 4 -6 -2 -13 -14 -16 -12 -3 -21 -12 -21 -19 0 -16 -16 -19 -25
-4 -3 6 1 13 9 16 20 8 21 34 1 34 -8 0 -15 4 -15 9 0 5 -7 11 -15 15 -21 8
-19 0 7 -23 18 -17 19 -21 6 -26 -18 -7 -58 22 -58 42 0 7 -7 10 -16 6 -13 -5
-10 -11 15 -30 33 -26 41 -53 16 -53 -8 0 -15 7 -15 15 0 8 -7 15 -15 15 -8 0
-15 7 -15 15 0 8 -5 15 -10 15 -6 0 -24 14 -40 30 -16 17 -34 30 -40 30 -14 0
-13 17 2 26 6 4 16 0 23 -9 7 -10 16 -17 20 -17 4 0 14 -8 21 -17 7 -10 16
-14 21 -10 4 5 0 13 -10 18 -24 14 -23 43 2 36 14 -3 17 0 14 14 -7 24 -8 24
-33 -3 -17 -19 -22 -20 -30 -8 -11 18 -4 30 18 30 13 0 14 2 3 13 -11 10 -14
10 -18 0 -3 -7 -9 -13 -14 -13 -12 0 -49 37 -49 50 0 6 -4 10 -9 10 -5 0 -4
14 2 30 12 31 21 37 32 20 3 -6 -1 -13 -9 -16 -20 -8 -21 -34 -1 -34 8 0 15
-7 15 -15 0 -8 7 -15 15 -15 8 0 15 7 15 15 0 17 25 20 35 5 3 -5 12 -10 18
-10 7 0 3 7 -8 16 -12 9 -30 12 -47 8 -24 -5 -28 -2 -28 15 0 15 4 19 17 14
13 -5 12 -1 -5 17 -22 24 -31 67 -12 55 7 -4 9 2 5 18 -4 14 -2 28 4 31 6 4
11 14 11 23 0 8 6 29 14 46 24 56 37 92 51 148 7 30 23 88 35 129 25 90 70
340 70 393 0 20 1 37 3 37 2 0 55 -26 119 -59z"/>
</g>
</svg>
